<?xml version="1.0" encoding="utf-8"?><svg viewBox="0 0 37 36" xmlns="http://www.w3.org/2000/svg" xmlns:xlink="http://www.w3.org/1999/xlink"><style>:root>svg{display:none}:root>svg:target{display:block}</style><svg viewBox="0 0 32 32" id="cross" xmlns="http://www.w3.org/2000/svg"><path d="M7 24L25 8m0 16L7 8"/></svg><svg viewBox="0 0 32 32" id="menu" xmlns="http://www.w3.org/2000/svg"><path d="M5 8h22M5 16h22m0 8H5"/></svg><svg fill="none" viewBox="0 0 36 36" id="play-icon" xmlns="http://www.w3.org/2000/svg"><circle cx="18" cy="18" r="18" fill="#8A53FF"/><path d="M24.414 16.427c1.333.77 1.333 2.694 0 3.464l-8.598 4.964c-1.333.77-3-.193-3-1.732v-9.928c0-1.54 1.667-2.502 3-1.732l8.598 4.964z" fill="#fff"/></svg><svg fill="none" viewBox="0 0 37 36" id="play-icon-light" xmlns="http://www.w3.org/2000/svg"><circle cx="18.169" cy="18" fill="#8A53FF" fill-opacity=".12" r="18"/><path d="M24.51 16.427c1.333.77 1.333 2.694 0 3.464l-8.489 4.9c-1.333.77-3-.192-3-1.732v-9.8c0-1.54 1.667-2.503 3-1.733l8.489 4.9z" fill="#8A53FF"/></svg><svg fill="none" viewBox="0 0 24 24" id="profile-icon" xmlns="http://www.w3.org/2000/svg"><path d="M12 5.143a4.286 4.286 0 100 8.571 4.286 4.286 0 000-8.571zM12 12a2.571 2.571 0 110-5.142A2.571 2.571 0 0112 12z" fill="#8A53FF"/><path d="M12 0a12 12 0 1012 12A12.014 12.014 0 0012 0zM6.857 20.895v-1.18a2.574 2.574 0 012.572-2.572h5.142a2.574 2.574 0 012.572 2.571v1.18a10.2 10.2 0 01-10.286 0zM18.85 19.65a4.288 4.288 0 00-4.279-4.222H9.43a4.287 4.287 0 00-4.28 4.222 10.286 10.286 0 1113.702 0z" fill="#8A53FF"/></svg><svg fill="none" viewBox="0 0 22 22" id="search-icon" xmlns="http://www.w3.org/2000/svg"><path d="M21 21l-4.722-4.73L21 21zM18.895 9.947A8.947 8.947 0 111 9.947a8.947 8.947 0 0117.894 0v0z" stroke="#8A53FF" stroke-width="2" stroke-linecap="round"/></svg></svg>